<?xml version="1.0" standalone="no"?>
<!DOCTYPE svg PUBLIC "-//W3C//DTD SVG 20010904//EN"
 "http://www.w3.org/TR/2001/REC-SVG-20010904/DTD/svg10.dtd">
<svg version="1.0" xmlns="http://www.w3.org/2000/svg"
 width="500.000000pt" height="500.000000pt" viewBox="0 0 500.000000 500.000000"
 preserveAspectRatio="xMidYMid meet">
 <defs>
    <linearGradient id="grad2" x1="0%" y1="0%" x2="100%" y2="0%">
      <stop offset="0%" stop-color="rgba(0, 6, 28,1)" />
      <stop offset="50%" stop-color="rgba(161,2,2,1)" />
      <stop offset="100%" stop-color="rgba(201,143,16,1)" />
    </linearGradient>
  </defs>

<g transform="translate(0.000000,500.000000) scale(0.100000,-0.100000)"
fill="url(#grad2)" stroke="none">
<path d="M2040 3033 c-140 -135 -316 -306 -391 -379 l-137 -134 42 0 c40 1 47
6 389 335 191 184 351 335 355 335 4 0 59 -52 122 -115 l114 -115 -54 -55
c-30 -30 -59 -55 -64 -55 -6 0 -38 27 -71 59 l-60 59 -230 -224 -230 -224 41
0 c39 0 47 6 228 180 103 99 191 180 194 180 4 0 70 -63 146 -139 l140 -140
39 45 c21 24 42 44 45 44 4 0 50 -38 102 -85 85 -76 99 -84 135 -84 l40 0 -40
37 c-22 20 -76 69 -120 109 l-80 72 43 41 c23 22 45 40 50 40 4 0 81 -67 171
-150 155 -142 165 -150 204 -150 24 0 37 4 32 9 -6 5 -100 93 -209 195 l-200
187 -111 -111 -111 -110 -47 48 c-26 26 -47 52 -47 57 0 6 73 83 163 172 l162
162 306 -304 c289 -288 309 -305 343 -305 20 0 36 3 36 7 0 3 -154 161 -342
350 l-342 343 -108 -107 -108 -108 -138 138 c-75 75 -139 137 -142 137 -3 -1
-120 -111 -260 -247z"/>
<path d="M2175 2623 l-107 -98 41 -3 c38 -3 47 2 106 54 l65 56 69 -56 c59
-48 74 -56 110 -56 l42 0 -63 58 c-34 31 -84 76 -109 100 l-46 42 -108 -97z"/>
<path d="M700 2495 c0 -13 206 -15 1790 -15 1584 0 1790 2 1790 15 0 13 -206
15 -1790 15 -1584 0 -1790 -2 -1790 -15z"/>
<path d="M920 2160 c0 -60 4 -100 10 -100 6 0 10 26 10 58 l1 57 30 -57 c16
-32 34 -58 39 -58 6 0 10 41 10 100 0 82 -3 100 -15 100 -12 0 -15 -13 -16
-57 l0 -58 -26 58 c-14 31 -29 57 -34 57 -5 0 -9 -45 -9 -100z"/>
<path d="M1102 2248 c-7 -7 -12 -41 -12 -84 0 -77 13 -104 50 -104 37 0 50 27
50 104 0 79 -9 96 -50 96 -14 0 -31 -5 -38 -12z m66 -78 c2 -61 -8 -86 -32
-77 -12 5 -16 21 -16 72 0 63 1 66 23 63 19 -3 22 -10 25 -58z"/>
<path d="M1260 2160 c0 -82 3 -100 15 -100 12 0 15 15 15 77 0 73 1 75 18 60
17 -15 19 -15 35 0 16 16 17 13 17 -60 0 -62 3 -77 15 -77 12 0 15 18 15 100
0 93 -1 100 -20 100 -10 0 -25 -10 -31 -22 l-12 -22 -15 22 c-8 12 -23 22 -33
22 -17 0 -19 -9 -19 -100z"/>
<path d="M1485 2248 c-2 -7 -9 -42 -15 -78 -6 -36 -14 -75 -17 -87 -4 -17 -1
-23 11 -23 9 0 16 7 16 15 0 9 9 15 25 15 16 0 25 -6 25 -15 0 -8 7 -15 16
-15 12 0 15 6 11 23 -3 12 -11 57 -18 100 -11 63 -16 77 -31 77 -10 0 -21 -6
-23 -12z m34 -110 c1 -19 -4 -28 -14 -28 -17 0 -18 12 -8 61 5 28 7 30 14 14
4 -11 8 -32 8 -47z"/>
<path d="M1620 2159 l0 -102 42 6 c55 7 68 27 68 102 0 73 -17 95 -73 95 l-37
0 0 -101z m75 1 c0 -60 -2 -65 -22 -68 -22 -3 -23 0 -23 68 0 68 1 71 23 68
20 -3 22 -8 22 -68z"/>
<path d="M1800 2160 c0 -82 3 -100 15 -100 12 0 15 18 15 100 0 82 -3 100 -15
100 -12 0 -15 -18 -15 -100z"/>
<path d="M1910 2241 c-5 -11 -10 -49 -10 -84 0 -67 16 -97 53 -97 21 0 57 35
57 55 0 23 -27 18 -33 -6 -4 -13 -12 -20 -24 -17 -15 3 -19 15 -21 69 -2 53 0
68 13 72 9 4 20 -1 27 -13 13 -20 38 -28 38 -12 0 4 -7 18 -16 30 -20 28 -69
30 -84 3z"/>
<path d="M2160 2160 c0 -60 4 -100 10 -100 6 0 10 32 10 75 0 41 3 75 6 75 4
0 13 -8 20 -17 12 -17 14 -17 28 2 14 18 15 14 16 -57 0 -63 3 -78 15 -78 12
0 15 18 15 100 0 89 -2 100 -18 100 -9 0 -23 -10 -30 -21 l-14 -21 -14 21 c-8
11 -22 21 -30 21 -11 0 -14 -20 -14 -100z"/>
<path d="M2350 2160 l0 -100 45 0 c33 0 45 4 45 15 0 10 -10 15 -30 15 -27 0
-30 3 -30 30 0 27 3 30 30 30 20 0 30 5 30 15 0 10 -10 15 -30 15 -25 0 -30 4
-30 25 0 21 5 25 30 25 20 0 30 5 30 15 0 11 -12 15 -45 15 l-45 0 0 -100z"/>
<path d="M2520 2159 l0 -102 36 6 c56 9 64 21 64 98 0 79 -13 99 -66 99 l-34
0 0 -101z m74 55 c20 -53 -5 -134 -38 -121 -12 5 -16 20 -16 72 0 62 1 65 24
65 13 0 27 -7 30 -16z"/>
<path d="M2690 2160 c0 -82 3 -100 15 -100 12 0 15 18 15 100 0 82 -3 100 -15
100 -12 0 -15 -18 -15 -100z"/>
<path d="M2815 2238 c-24 -111 -32 -178 -20 -178 7 0 15 7 19 15 3 8 15 15 26
15 11 0 20 -7 20 -15 0 -8 7 -15 16 -15 13 0 15 7 10 33 -3 17 -10 62 -17 100
-9 55 -14 67 -30 67 -11 0 -21 -9 -24 -22z m35 -89 c0 -29 -4 -39 -16 -39 -13
0 -15 7 -10 31 3 17 6 38 6 46 0 8 5 11 10 8 6 -3 10 -24 10 -46z"/>
<path d="M3044 2235 c-21 -32 -11 -59 32 -86 37 -23 42 -51 11 -57 -12 -3 -20
4 -24 17 -6 24 -33 29 -33 6 0 -21 36 -55 58 -55 27 0 54 34 50 61 -2 13 -19
34 -38 47 -41 27 -46 37 -30 57 15 18 40 8 40 -16 0 -10 7 -19 15 -19 20 0 19
34 -1 54 -23 24 -61 20 -80 -9z"/>
<path d="M3190 2245 c0 -8 9 -15 20 -15 18 0 20 -7 20 -85 0 -69 3 -85 15 -85
12 0 15 16 15 85 0 78 2 85 20 85 11 0 20 7 20 15 0 12 -13 15 -55 15 -42 0
-55 -3 -55 -15z"/>
<path d="M3360 2177 c0 -69 3 -87 18 -100 25 -22 48 -21 72 3 17 17 20 33 20
100 0 63 -3 80 -15 80 -11 0 -15 -18 -17 -82 -3 -75 -5 -83 -23 -83 -18 0 -20
8 -23 83 -2 64 -6 82 -17 82 -12 0 -15 -17 -15 -83z"/>
<path d="M3540 2159 l0 -102 38 6 c56 9 75 39 70 111 -5 67 -22 86 -75 86
l-33 0 0 -101z m78 13 c3 -54 -8 -82 -34 -82 -11 0 -14 17 -14 71 0 67 1 70
23 67 19 -3 22 -10 25 -56z"/>
<path d="M3710 2160 c0 -82 3 -100 15 -100 12 0 15 18 15 100 0 82 -3 100 -15
100 -12 0 -15 -18 -15 -100z"/>
<path d="M3827 2242 c-26 -28 -23 -136 3 -162 25 -25 52 -26 73 -2 23 25 24
144 1 166 -21 21 -57 20 -77 -2z m61 -81 c-3 -58 -5 -66 -23 -66 -17 0 -20 8
-23 58 -3 61 9 90 34 80 11 -4 14 -21 12 -72z"/>
<path d="M3996 2244 c-31 -30 -11 -76 49 -110 12 -6 16 -16 12 -27 -9 -23 -38
-21 -44 3 -7 25 -33 26 -33 2 0 -50 76 -66 100 -22 16 30 4 56 -35 79 -36 21
-47 54 -21 64 16 6 36 -11 36 -30 0 -7 7 -13 15 -13 21 0 19 33 -3 53 -23 21
-56 22 -76 1z"/>
<path d="M1872 1908 c1 -61 1 -62 7 -18 l7 45 8 -44 c6 -31 11 -40 17 -30 5 8
9 23 9 34 0 15 -3 16 -9 7 -5 -9 -10 0 -15 27 -10 63 -26 49 -24 -21z"/>
<path d="M1926 1913 c9 -78 14 -79 14 -5 0 35 -4 62 -10 62 -6 0 -8 -21 -4
-57z"/>
<path d="M1994 1957 c-3 -8 -4 -34 -2 -58 2 -36 7 -44 23 -44 18 0 20 7 20 55
0 44 -3 55 -18 58 -9 2 -20 -3 -23 -11z m34 -44 c-2 -27 -7 -48 -13 -48 -5 0
-11 21 -13 48 -3 38 0 47 13 47 13 0 16 -9 13 -47z"/>
<path d="M2087 1920 c5 -51 17 -80 27 -69 9 9 23 118 14 113 -4 -3 -8 -20 -8
-39 0 -41 -20 -58 -21 -18 0 15 -4 37 -9 48 -6 13 -7 1 -3 -35z"/>
<path d="M2183 1910 c0 -36 2 -50 4 -32 2 17 2 47 0 65 -2 17 -4 3 -4 -33z"/>
<path d="M2242 1908 c1 -61 1 -62 8 -18 l6 45 8 -38 c13 -61 26 -53 25 15 -2
56 -3 59 -8 23 l-7 -40 -8 32 c-13 57 -26 47 -24 -19z"/>
<path d="M2337 1964 c-4 -4 -7 -29 -7 -55 0 -34 4 -49 17 -53 22 -9 36 7 30
35 -4 21 -4 21 -6 -4 -2 -42 -25 -28 -29 18 -4 43 13 69 29 45 9 -13 10 -13 6
0 -4 16 -29 25 -40 14z"/>
<path d="M2482 1935 c-2 -47 7 -85 19 -85 5 0 9 9 9 21 0 11 -4 18 -9 14 -6
-3 -12 16 -14 42 -3 46 -3 46 -5 8z"/>
<path d="M2510 1949 c0 -31 22 -99 32 -99 4 0 8 17 7 38 -1 33 -2 34 -9 12 -7
-21 -8 -19 -9 17 -1 42 -21 73 -21 32z"/>
<path d="M2552 1950 c0 -14 2 -19 5 -12 2 6 2 18 0 25 -3 6 -5 1 -5 -13z"/>
<path d="M2603 1910 c0 -36 2 -50 4 -32 2 17 2 47 0 65 -2 17 -4 3 -4 -33z"/>
<path d="M2658 1963 c7 -3 13 -27 14 -61 l2 -57 3 50 c3 27 9 55 15 62 8 10 4
13 -18 12 -16 0 -23 -3 -16 -6z"/>
<path d="M2740 1908 c0 -34 3 -58 8 -54 7 8 8 13 11 42 2 26 25 10 32 -22 5
-20 7 -10 8 34 1 41 -3 61 -9 57 -6 -4 -8 -10 -6 -14 3 -4 0 -13 -5 -21 -8
-13 -10 -13 -18 -1 -5 8 -7 20 -4 28 3 7 0 13 -6 13 -7 0 -11 -23 -11 -62z"/>
<path d="M2895 1954 c3 -12 10 -42 14 -65 5 -24 9 -34 10 -23 1 12 8 40 16 63
8 22 10 41 5 41 -6 0 -10 -8 -10 -18 0 -32 -13 -34 -27 -5 -8 18 -11 20 -8 7z"/>
<path d="M2986 1954 c-11 -28 -6 -70 9 -90 15 -19 15 -19 30 0 27 35 17 106
-15 106 -10 0 -21 -7 -24 -16z m34 -44 c0 -27 -4 -50 -10 -50 -5 0 -10 23 -10
50 0 28 5 50 10 50 6 0 10 -22 10 -50z"/>
<path d="M3084 1915 c1 -53 3 -60 21 -60 18 0 20 7 21 60 l1 60 -6 -55 c-3
-30 -10 -55 -16 -55 -5 0 -13 25 -16 55 l-6 55 1 -60z"/>
<path d="M1968 1633 c292 -2 772 -2 1065 0 292 1 53 2 -533 2 -586 0 -825 -1
-532 -2z"/>
</g>
</svg>
